PathFileType	4	(X/Y/Z)	c:/Users/goper/Files/vsCode/490R/osim_files/C17/C17_Slow_03.trc
DataRate	CameraRate	NumFrames	NumMarkers	Units                	OrigDataRate	OrigDataStartFrame	OrigNumFrames
250.00	250.00	6	36	mm	250.0	1189	2377
                Frame#	Time	LPSIS			LASIS			LTH1			LTH2			LTH3			LTH4			LLFE			LMFE			LSH1			LSH2			LSH3			LSH4			LLMAL			LMMAL			LCAL			LMTP5			LTOE			LMTP1			RPSIS			RASIS			RTH1			RTH2			RTH3			RTH4			RLFE			RMFE			RSH1			RSH2			RSH3			RSH4			RLMAL			RMMAL			RCAL			RMTP1			RTOE			RMTP5		
		X1	Y1	Z1	X2	Y2	Z2	X3	Y3	Z3	X4	Y4	Z4	X5	Y5	Z5	X6	Y6	Z6	X7	Y7	Z7	X8	Y8	Z8	X9	Y9	Z9	X10	Y10	Z10	X11	Y11	Z11	X12	Y12	Z12	X13	Y13	Z13	X14	Y14	Z14	X15	Y15	Z15	X16	Y16	Z16	X17	Y17	Z17	X18	Y18	Z18	X19	Y19	Z19	X20	Y20	Z20	X21	Y21	Z21	X22	Y22	Z22	X23	Y23	Z23	X24	Y24	Z24	X25	Y25	Z25	X26	Y26	Z26	X27	Y27	Z27	X28	Y28	Z28	X29	Y29	Z29	X30	Y30	Z30	X31	Y31	Z31	X32	Y32	Z32	X33	Y33	Z33	X34	Y34	Z34	X35	Y35	Z35	X36	Y36	Z36

1189	4.75200	103.60700	1089.60535	301.86487	-94.16447	1037.54480	395.06454	-0.51672	710.09540	419.85565	-8.30098	666.95282	411.14987	-61.18014	717.38721	416.82135	-60.79055	674.13556	409.22769	-5.41981	501.64001	376.26620	10.46009	509.31381	254.63135	77.69260	274.92395	370.09338	79.72188	231.78676	363.12280	15.68964	264.75366	362.90231	28.02832	223.24001	355.65536	86.79071	95.01602	334.18442	78.85539	103.39296	246.42957	165.42337	59.66266	293.90121	-27.73964	40.55246	354.24332	-83.95842	56.48069	283.19592	-63.07069	38.19978	235.09589	101.68803	1083.29114	228.11317	-73.18028	1050.61462	127.97645	-99.02210	761.68701	60.14074	-113.79959	718.28925	66.01122	-156.36464	777.76392	73.40631	-165.39355	731.81268	73.88906	-191.82697	515.04169	84.57253	-185.88075	523.39819	212.32822	-81.11916	334.32346	83.27705	-78.76933	290.04611	95.06209	-143.13075	324.96524	86.77753	-133.71890	278.96411	98.72186	-53.11201	117.08847	125.64215	-96.02639	131.21373	209.24464	10.64097	87.20354	184.13300	-221.20557	52.19201	189.18797	-230.09090	77.42352	142.78546	-165.23106	46.10456	85.99955
1190	4.75600	99.37261	1089.59985	301.59549	-98.87364	1037.09790	395.00949	-3.00773	710.17206	419.84995	-10.53471	666.99432	411.08392	-63.81738	717.08167	416.66034	-62.98325	673.91968	409.09464	-6.28234	501.65332	376.35089	9.71377	509.40140	254.69124	77.18935	275.00281	370.19339	79.33471	231.90588	363.18314	15.29158	264.74207	363.00314	27.45898	222.95827	355.71906	86.72438	95.10275	334.17606	78.76818	103.52443	246.44044	165.33237	59.76825	293.88776	-27.76082	40.52166	354.24832	-83.93920	56.42582	283.21872	-63.08229	38.11924	235.09192	96.99842	1082.92822	227.90891	-77.05885	1049.70557	127.68014	-104.33817	761.95819	59.99235	-119.55283	718.45319	65.71495	-161.97363	778.27679	73.41707	-170.91997	731.90021	73.72163	-198.82045	515.62286	84.67467	-192.21118	523.87573	212.45131	-92.25398	332.39597	83.19051	-91.54706	288.03345	94.97995	-154.80437	324.23026	87.25001	-146.05945	278.22046	98.83583	-68.94442	114.72179	125.66515	-111.40571	129.67218	209.26430	-3.97038	83.88857	184.82394	-238.33115	53.47131	189.93977	-246.70389	78.31553	143.05115	-182.51146	45.72163	86.20248
1191	4.76000	94.52797	1088.99963	301.65469	-103.51347	1036.61255	394.85947	-5.54429	710.26752	419.85513	-12.88783	667.04388	411.06293	-66.42962	716.78442	416.57425	-65.30939	673.71735	409.02142	-7.44376	501.64288	376.39575	9.16125	509.52692	254.41330	76.63368	275.08154	370.28775	78.91811	232.03123	363.25214	14.84951	264.75418	363.12228	27.34774	223.26181	355.81024	86.56042	95.19868	334.16467	78.66418	103.65314	246.44182	165.25360	59.86609	293.92059	-27.78444	40.50980	354.26413	-84.03384	56.52340	283.31235	-62.91592	38.43563	235.54350	92.35780	1082.65222	227.80534	-81.96604	1050.07422	127.71264	-109.39156	762.10071	59.82460	-125.20593	718.55432	65.48779	-167.10042	778.55823	73.49695	-176.09827	732.29736	73.57027	-205.37042	516.17682	84.78606	-198.39490	524.27051	212.56606	-103.42544	330.53860	83.09160	-103.70464	286.14743	94.95156	-166.01585	323.80460	87.32278	-158.24150	277.71347	98.90610	-84.81490	112.44766	125.65143	-127.02174	128.37602	209.29982	-21.33944	81.24759	184.20509	-255.25572	54.05174	189.97772	-263.33383	79.44603	143.30594	-199.71213	45.54657	86.52234
1192	4.76400	89.88491	1088.63269	301.57516	-108.01089	1036.14478	394.80997	-8.12298	710.29156	419.82401	-15.18062	667.07068	411.00296	-68.86179	716.57080	416.58612	-67.58875	673.49640	408.90787	-8.55339	501.67270	376.40109	8.07492	509.60785	254.56773	76.08958	275.23511	370.37006	78.51752	232.16592	363.28622	14.31632	264.74261	363.24023	26.90344	223.32825	355.84128	86.43238	95.31491	334.14340	78.58456	103.80878	246.43013	165.19026	59.99079	293.90445	-27.82647	40.49293	354.25684	-83.97466	56.66463	283.37750	-62.96223	38.39790	235.55385	87.91780	1082.46411	227.78845	-86.63617	1049.97388	127.73048	-114.65803	762.13562	59.74202	-130.74648	718.59088	65.33984	-171.92453	778.62573	73.47177	-180.66032	732.77014	72.87740	-212.30260	516.79236	84.97042	-204.46257	524.63281	212.72726	-114.52558	328.82428	83.06379	-115.65659	284.42001	94.89096	-176.82718	323.73343	87.05555	-170.45833	277.13373	99.03989	-100.72047	110.37315	125.69500	-143.09598	126.67192	209.21901	-37.91964	78.10299	184.23903	-272.00302	55.22862	190.26915	-279.83902	80.73827	143.67249	-216.86925	45.55700	86.82243
1193	4.76800	85.33933	1088.25879	301.48834	-112.43392	1035.57056	394.70239	-10.79446	710.36920	419.78983	-17.49026	667.09760	410.93683	-71.90634	715.97412	416.13373	-69.93024	673.15564	408.72943	-9.51366	501.76321	376.52063	6.97207	509.71756	254.64204	75.61513	275.40475	370.40015	78.13429	232.37273	363.32568	13.85635	264.74066	363.29111	26.55114	223.40483	355.89664	86.31406	95.42380	334.10034	78.47599	103.91711	246.44402	165.16084	60.10241	293.91730	-27.83686	40.48677	354.25107	-84.11977	56.42241	283.37656	-63.00865	38.36695	235.54811	83.24418	1082.02124	227.54555	-91.04102	1049.39709	127.67542	-119.80702	762.20209	59.67791	-136.16205	718.56158	65.28127	-177.42198	778.55664	72.65357	-186.24973	732.84070	73.29173	-218.97139	517.24170	85.02347	-210.36914	524.89929	212.86249	-125.48538	327.10486	82.90671	-127.70135	282.77344	94.85682	-188.41310	323.12283	87.51852	-182.67252	276.60980	99.23007	-116.50095	108.45520	125.74004	-157.71848	126.18232	209.53102	-52.72977	76.03448	184.30997	-288.66156	56.73347	190.36911	-296.27350	82.27925	144.05177	-234.03015	45.78633	87.12383
1194	4.77200	80.75668	1087.84143	301.35641	-117.23468	1034.99536	394.61929	-13.40578	710.40527	419.76834	-19.83583	667.12933	410.86267	-74.17416	715.89307	416.31479	-72.31191	672.93256	408.59894	-10.76862	501.76129	376.50919	5.92063	509.79636	254.66995	75.07925	275.61981	370.39224	77.76057	232.60217	363.38174	13.20646	264.81293	363.71735	26.20136	223.49405	355.93283	86.25163	95.58217	334.06665	78.37857	104.02611	246.44209	165.11462	60.22088	293.90259	-27.82589	40.52157	354.28561	-84.08944	56.38886	283.37314	-63.01844	38.42264	235.58128	78.85250	1081.79773	227.51566	-95.57048	1049.35632	127.53502	-124.68562	762.15820	59.66911	-141.37804	718.49445	65.28590	-182.16661	778.78998	73.28209	-190.94046	733.01801	72.84098	-225.69319	517.62439	85.15636	-216.28841	525.17059	212.99541	-136.48679	325.43573	82.86786	-139.72653	281.12613	94.82905	-199.04425	323.17303	87.23795	-194.72749	276.28113	99.31749	-132.28221	106.73356	125.80692	-173.00787	125.33263	209.68918	-71.99376	70.93312	185.15048	-305.56467	58.41996	191.16037	-312.51602	84.07036	144.47748	-251.25838	46.22130	87.53519
